<?xml version="1.0" encoding="utf-8"?>
<!-- Generator: Adobe Illustrator 25.2.1, SVG Export Plug-In . SVG Version: 6.00 Build 0)  -->
<svg version="1.1" id="Layer_1" xmlns="http://www.w3.org/2000/svg" xmlns:xlink="http://www.w3.org/1999/xlink" x="0px" y="0px"
	 viewBox="0 0 2058.72 1649.45" style="enable-background:new 0 0 2058.72 1649.45;" xml:space="preserve">
<style type="text/css">
	.st0{fill-rule:evenodd;clip-rule:evenodd;fill:#2E3192;stroke:#2E3192;stroke-width:10.0001;stroke-miterlimit:2.6131;}
	.st1{fill:none;stroke:#2E3192;stroke-width:50;stroke-miterlimit:2.6131;}
	.st2{fill-rule:evenodd;clip-rule:evenodd;}
</style>
<g>
	<g>
		<path class="st0" d="M295.71,452.84c-21.59,23.33-101.69,0.44-120.16-34.34c-18.47-34.78,24.71-81.43,64.76-69.99
			C280.37,359.96,317.3,429.51,295.71,452.84L295.71,452.84z"/>
		<path class="st0" d="M277.74,949.32c-17.81-4.26-45.15-6.58-68.64,5.88c-23.5,12.46-43.15,39.71-40.33,64.13
			c2.81,24.42,28.1,46.02,54.04,47.72c25.94,1.71,52.54-16.47,67.53-36.63c14.99-20.16,18.38-42.3,15.94-56.47
			C303.82,959.78,295.55,953.58,277.74,949.32L277.74,949.32z"/>
		<path class="st1" d="M272.04,436.98c11.69,5.91,234.21,187.77,402.52,353.34c117.09,115.19,218.46,243.32,215.41,282.17
			c-5.16,65.71-51.85,35.4-228.52-51.71c-176.67-87.11-303.05-64.14-370.4-50.7"/>
	</g>
	<path class="st2" d="M1858.07,1111.81c-43.7,89.82-144.34,188.42-216.73,246.02c-132.8,105.67-246.88,91.22-512.92-29.09
		c-6.04-2.73-146.56-61.69-146.22-67.27c0.16-2.68,30.32-30.31,32.39-32.51c31.36-33.45,50.67-71.97,60.51-115.96
		c0.05-0.24,2.73-11.05,4.02-13.15c326.84-55.64,473.05-270.5,474.64-273.09C1690.37,604.77,380.08,178.4,280.2,124.51
		l-92.03,122.18c0,0-46.36-10.4,441.17,397.56c24.66,20.68,48.9,41.68,72.71,63.34c93.9,85.39,295.14,253.84,294.96,392.51
		c-0.05,37.03-43.32,97.61-76.15,117.15c-15.28,9.09-16.2,9.46-23.43,5.86c-152.36-75.97-190.06-92.58-281.16-123.01
		c-236.64-79.03-373.64-83.48-427.33,178.95c-13.06,63.82-15.4,144.28,41.2,189.86c128.61,103.55,478.89-29.53,603.14-106.76
		c5.95-3.7,73.78-46.43,75.86-45.33c15.85,8.42,110.15,55.66,117.15,58.58c128.8,53.74,268.77,117.19,410.03,128.87
		c268.08,22.16,481.62-340.06,486.17-345.59L1858.07,1111.81z M288.26,233.18c254.43,28,1149.81,425.52,1205.03,560.56
		c-116.93,186.74-417.29,240.64-420.22,227.32C973.88,790.95,282.4,256.61,288.26,233.18z M317.54,1428.11
		c-103.97-36.84-35.03-231.57,17.57-281.16c74.82-87.61,498.37,123.35,497.89,123.01C731.75,1346.28,447.51,1484.62,317.54,1428.11z
		"/>
</g>
</svg>
